# xmcd
#
# Track frame offsets: 
#        150
#        17674
#        32738
#        48459
#        62899
#        76397
#        91638
#        104899
#        122181
#        136307
#        148256
#        167556
#        180387
#        195690
#        210272
#
# Disc length: 2994 seconds
#
# Revision: 2
# Processed by: cddbd v1.5.1PL0 Copyright (c) Steve Scherf et al.
# Submitted via: ExactAudioCopy v0.95a5
#
DISCID=cf0bb00f
DTITLE=Don Williams - Audiophile Selection [CD2]
DYEAR=2003
DGENRE=Country
TTITLE0=Heartbeat In Darkness
TTITLE1=We've Got A Good Fire Going
TTITLE2=Then It's Love
TTITLE3=I'll Never Be In Love Again
TTITLE4=Looking Back
TTITLE5=I Wouldn't Be A Man
TTITLE6=Running Out Of Reasons To Run
TTITLE7=Old Coyote Town
TTITLE8=Come From The Heart
TTITLE9=We Got Love
TTITLE10=Senorita
TTITLE11=Shot Full Of Love
TTITLE12=Easy Touch
TTITLE13=Another Place, Another Time
TTITLE14=Desperately
EXTD=
EXTT0=
EXTT1=
EXTT2=
EXTT3=
EXTT4=
EXTT5=
EXTT6=
EXTT7=
EXTT8=
EXTT9=
EXTT10=
EXTT11=
EXTT12=
EXTT13=
EXTT14=
PLAYORDER=
